<svg width="820" xmlns="http://www.w3.org/2000/svg" height="820" id="screenshot-bfea1afd-34f1-80c6-8005-769ae18b20d0" viewBox="0 0 820 820" xmlns:xlink="http://www.w3.org/1999/xlink" fill="none" version="1.1"><g id="shape-bfea1afd-34f1-80c6-8005-769ae18b20d0" data-testid="favicon"><defs><clipPath id="frame-clip-bfea1afd-34f1-80c6-8005-769ae18b20d0-render-1" class="frame-clip frame-clip-def"><rect rx="0" ry="0" x="0" y="0" width="820" height="820" transform="matrix(1.000000, 0.000000, 0.000000, 1.000000, 0.000000, 0.000000)"/></clipPath></defs><g clip-path="url(#frame-clip-bfea1afd-34f1-80c6-8005-769ae18b20d0-render-1)" fill="none"><g class="fills" id="fills-bfea1afd-34f1-80c6-8005-769ae18b20d0"><rect rx="0" ry="0" x="0" y="0" width="820" height="820" transform="matrix(1.000000, 0.000000, 0.000000, 1.000000, 0.000000, 0.000000)" class="frame-background"/></g><g class="frame-children"><g id="shape-6180bf88-92fb-8050-8005-7d4771259622" data-testid="Mask" rx="0" ry="0"><g clip-path="url(#render-2-6180bf88-92fb-8050-8005-7d4771259623-clip)"><g mask="url(#render-2-6180bf88-92fb-8050-8005-7d4771259623-mask)"><defs><filter id="render-2-6180bf88-92fb-8050-8005-7d4771259623-filter"><feFlood flood-color="white" result="FloodResult"/><feComposite in="FloodResult" in2="SourceGraphic" operator="in" result="comp"/></filter><clipPath id="render-2-6180bf88-92fb-8050-8005-7d4771259623-clip" class="mask-clip-path"><polyline points="30,109 780,109 780,712.3297307053153 30,712.3297307053153"/></clipPath><mask width="750" maskUnits="userSpaceOnUse" height="603.3297307053153" class="mask-shape" x="30" id="render-2-6180bf88-92fb-8050-8005-7d4771259623-mask" data-old-y="109" data-old-width="750" data-old-x="30" y="109" data-old-height="603.3297307053153"><g filter="url(#render-2-6180bf88-92fb-8050-8005-7d4771259623-filter)"><g id="shape-6180bf88-92fb-8050-8005-7d4771259623" data-testid="Group" rx="0" ry="0"><g id="shape-6180bf88-92fb-8050-8005-7d4771259625" data-testid="Rectangle"><g class="fills" id="fills-6180bf88-92fb-8050-8005-7d4771259625"><rect rx="34" ry="34" x="621.6793839719758" y="109.52355374690706" transform="matrix(1.000000, 0.000000, 0.000000, 1.000000, 0.000000, 0.000000)" width="158.32061602802435" height="602.282623211503" style="fill: rgb(255, 255, 255); fill-opacity: 1;"/></g></g><g id="shape-6180bf88-92fb-8050-8005-7d4771259626" data-testid="path"><g class="fills" id="fills-6180bf88-92fb-8050-8005-7d4771259626"><path d="M413.827,114.505C422.428,108.187,433.864,107.231,443.401,112.033C452.937,116.835,458.950,126.577,458.950,137.225L458.950,684.105C458.950,694.753,452.937,704.495,443.401,709.297C433.864,714.099,422.428,713.143,413.827,706.825L41.518,433.385C34.275,428.065,30.000,419.632,30.000,410.665C30.000,401.698,34.275,393.265,41.518,387.945L413.827,114.505Z" stroke-linejoin="round" style="fill: rgb(255, 255, 255); fill-opacity: 1;"/></g></g></g></g></mask></defs><g id="shape-6180bf88-92fb-8050-8005-7d4771259624" data-testid="Rectangle"><defs><linearGradient id="fill-color-gradient-render-6-1" x1="0.3935610672001122" y1="0.24065091947847517" x2="0.7702180042906517" y2="0.7971236265519965" gradientTransform=""><stop offset="0" stop-color="#1c8bff" stop-opacity="0.790126953125"/><stop offset="1" stop-color="#0065ff" stop-opacity="0.930107421875"/></linearGradient><radialGradient id="fill-color-gradient-render-6-0" cx="0.42186544544838794" cy="-0.009726289272182182" r="0.6779515843165824" gradientTransform="matrix(-0.972000, 0.234981, -0.234981, -0.972000, 0.829633, -0.118310)"><stop offset="0" stop-color="#ffffff" stop-opacity="0.265146484375"/><stop offset="1" stop-color="#ffffff" stop-opacity="0"/></radialGradient><pattern patternUnits="userSpaceOnUse" x="-7.402600735278838" y="60.63179374092397" width="824.8052014705576" height="700.0661432234665" id="fill-0-render-6"><g><rect width="824.8052014705576" height="700.0661432234665" style="fill: url(&quot;#fill-color-gradient-render-6-1&quot;);"/><rect width="824.8052014705576" height="700.0661432234665" style="fill: url(&quot;#fill-color-gradient-render-6-0&quot;);"/></g></pattern></defs><g class="fills" id="fills-6180bf88-92fb-8050-8005-7d4771259624"><rect rx="0" ry="0" x="-7.402600735278838" y="60.63179374092397" transform="matrix(1.000000, 0.000000, 0.000000, 1.000000, 0.000000, 0.000000)" width="824.8052014705576" height="700.0661432234665" fill="url(#fill-0-render-6)"/></g></g></g></g></g></g></g></g></svg>